# Blender 4.2.0
# www.blender.org
o plant_on_head
v 2.129474 4.002547 2.134802
v -2.134802 4.002547 -2.129475
v -2.134802 10.033146 -2.129475
v 2.129475 10.033146 2.134802
v 2.134802 4.002547 2.129475
v -2.129475 4.002547 -2.134802
v -2.129474 10.033146 -2.134802
v 2.134802 10.033146 2.129475
v 2.134802 4.002547 -2.129474
v -2.129475 4.002547 2.134802
v -2.129475 10.033146 2.134802
v 2.134802 10.033146 -2.129475
v 2.129475 4.002547 -2.134802
v -2.134802 4.002547 2.129475
v -2.134802 10.033146 2.129474
v 2.129475 10.033146 -2.134802
vn -0.7071 -0.0000 0.7071
vn 0.7071 -0.0000 -0.7071
vn 0.7071 -0.0000 0.7071
vn -0.7071 -0.0000 -0.7071
vt 0.000000 0.000000
vt 1.000000 0.000000
vt 1.000000 1.000000
vt 0.000000 1.000000
vt 1.000000 0.000000
vt 0.000000 0.000000
vt 0.000000 0.000000
vt 0.000000 1.000000
s 0
f 2/1/1 1/2/1 4/3/1 3/4/1
f 6/5/2 7/3/2 8/4/2 5/6/2
f 10/7/3 9/2/3 12/3/3 11/8/3
f 14/5/4 15/3/4 16/4/4 13/6/4
