# Blender 4.2.0
# www.blender.org
o Leg_Left
v 1.091836 6.896159 -1.101377
v 1.091836 6.896159 1.101377
v -1.110917 6.896159 -1.101377
v 1.091837 -0.056595 -1.101377
v 1.091837 -0.056595 1.101377
v -1.110916 -0.056595 1.101377
v -1.110917 6.896159 1.101377
v -1.110916 -0.056595 -1.101377
vn -0.0000 1.0000 -0.0000
vn -0.0000 -1.0000 -0.0000
vn -1.0000 -0.0000 -0.0000
vn -0.0000 -0.0000 -1.0000
vn 1.0000 -0.0000 -0.0000
vn -0.0000 -0.0000 1.0000
vt 0.125000 0.375000
vt 0.187500 0.375000
vt 0.187500 0.500000
vt 0.125000 0.500000
vt 0.062500 0.375000
vt 0.062500 0.500000
vt 0.000000 0.375000
vt 0.000000 0.000000
vt 0.062500 0.000000
vt 0.125000 0.000000
vt 0.187500 0.000000
vt 0.250000 0.000000
vt 0.250000 0.375000
s 0
f 1/1/1 3/2/1 7/3/1 2/4/1
f 8/5/2 4/1/2 5/4/2 6/6/2
f 6/7/3 7/8/3 3/9/3 8/5/3
f 8/5/4 3/9/4 1/10/4 4/1/4
f 4/1/5 1/10/5 2/11/5 5/2/5
f 5/2/6 2/11/6 7/12/6 6/13/6
