# Blender 4.2.0
# www.blender.org
mtllib vl_cosmetics_head.mtl
o Player
v -2.001182 -0.001150 2.001182
v -2.001182 -0.001150 -2.001182
v -2.001182 4.001214 2.001182
v -2.001182 4.001214 -2.001182
v 2.001182 -0.001150 2.001182
v -2.201300 -0.198271 2.201300
v -2.201300 -0.198271 -2.201300
v -2.201300 4.204323 2.201300
v -2.201300 4.204323 -2.201300
v 2.201300 -0.198271 2.201300
v 2.301359 -0.301326 -2.301360
v 2.001182 4.001214 -2.001182
v 2.001182 4.001214 2.001182
v 2.001182 -0.001150 -2.001182
v 2.201300 4.204323 -2.201300
v 2.201300 4.204323 2.201300
v 2.201300 -0.198271 -2.201300
v 2.301359 4.301390 2.301359
v -2.301359 4.301390 2.301359
v 2.301359 -0.301326 2.301359
v -2.301359 4.301390 -2.301360
v 2.301359 4.301390 -2.301360
v -2.301359 -0.301326 -2.301360
v -2.301359 -0.301326 2.301359
vn -0.0000 -0.0000 1.0000
vn -1.0000 -0.0000 -0.0000
vn -0.0000 -0.0000 -1.0000
vn -0.0000 -1.0000 -0.0000
vn -0.0000 1.0000 -0.0000
vn 1.0000 -0.0000 -0.0000
vt 0.500000 0.750000
vt 0.375000 0.750000
vt 0.375000 0.500000
vt 0.500000 0.500000
vt 0.250000 0.750000
vt 0.250000 0.500000
vt 0.125000 0.750000
vt 0.125000 0.500000
vt 0.375000 1.000000
vt 0.250000 1.000000
vt 0.125000 1.000000
vt 0.000000 0.750000
vt 0.000000 0.500000
vt 1.000000 0.750000
vt 0.875000 0.750000
vt 0.875000 0.500000
vt 1.000000 0.500000
vt 0.750000 0.750000
vt 0.750000 0.500000
vt 0.625000 0.750000
vt 0.625000 0.500000
vt 0.875000 1.000000
vt 0.750000 1.000000
vt 0.625000 1.000000
s 0
usemtl Skin
f 13/1/1 3/2/1 1/3/1 5/4/1
f 3/2/2 4/5/2 2/6/2 1/3/2
f 4/5/3 12/7/3 14/8/3 2/6/3
f 14/2/4 5/9/4 1/10/4 2/5/4
f 4/5/5 3/10/5 13/11/5 12/7/5
f 13/12/6 5/13/6 14/8/6 12/7/6
f 16/14/1 8/15/1 6/16/1 10/17/1
f 8/15/2 9/18/2 7/19/2 6/16/2
f 9/18/3 15/20/3 17/21/3 7/19/3
f 17/15/4 10/22/4 6/23/4 7/18/4
f 9/18/5 8/23/5 16/24/5 15/20/5
f 16/1/6 10/4/6 17/21/6 15/20/6
usemtl Armor
f 18/1/6 20/4/6 11/21/6 22/20/6
f 21/18/5 19/23/5 18/24/5 22/20/5
f 11/15/4 20/22/4 24/23/4 23/18/4
f 21/18/3 22/20/3 11/21/3 23/19/3
f 19/15/2 21/18/2 23/19/2 24/16/2
f 18/14/1 19/15/1 24/16/1 20/17/1
