# Blender 4.2.0
# www.blender.org
o plant_on_head
v 1.413281 4.000032 1.416817
v -1.416817 4.000032 -1.413281
v -1.416816 8.002396 -1.413281
v 1.413281 8.002396 1.416817
v 1.416816 4.000032 1.413281
v -1.413281 4.000032 -1.416817
v -1.413281 8.002396 -1.416817
v 1.416817 8.002396 1.413281
v 1.416817 4.000032 -1.413281
v -1.413281 4.000032 1.416817
v -1.413281 8.002396 1.416816
v 1.416817 8.002396 -1.413281
v 1.413281 4.000032 -1.416816
v -1.416817 4.000032 1.413281
v -1.416817 8.002396 1.413281
v 1.413281 8.002396 -1.416817
vn -0.7071 -0.0000 0.7071
vn 0.7071 -0.0000 -0.7071
vn 0.7071 -0.0000 0.7071
vn -0.7071 -0.0000 -0.7071
vt 0.000000 0.000000
vt 1.000000 0.000000
vt 1.000000 1.000000
vt 0.000000 1.000000
vt 1.000000 0.000000
vt 0.000000 0.000000
vt 0.000000 0.000000
vt 0.000000 1.000000
s 0
f 2/1/1 1/2/1 4/3/1 3/4/1
f 6/5/2 7/3/2 8/4/2 5/6/2
f 10/7/3 9/2/3 12/3/3 11/8/3
f 14/5/4 15/3/4 16/4/4 13/6/4
